<mxfile host="app.diagrams.net" modified="2023-11-22T16:40:59.888Z" agent="Mozilla/5.0 (Windows NT 10.0; Win64; x64) AppleWebKit/537.36 (KHTML, like Gecko) Chrome/119.0.0.0 Safari/537.36" etag="Hdz8jguXcuQiatwkHJzJ" version="22.1.3" type="device">
  <diagram name="Страница — 1" id="k_uDU-zqKvDs9IC1ylWo">
    <mxGraphModel dx="1434" dy="780" grid="1" gridSize="10" guides="1" tooltips="1" connect="1" arrows="1" fold="1" page="1" pageScale="1" pageWidth="827" pageHeight="1169" math="0" shadow="0">
      <root>
        <mxCell id="0" />
        <mxCell id="1" parent="0" />
        <mxCell id="8-dMRShzOqgbtEUZiYnd-22" style="edgeStyle=orthogonalEdgeStyle;rounded=0;orthogonalLoop=1;jettySize=auto;html=1;exitX=1;exitY=0.25;exitDx=0;exitDy=0;entryX=0;entryY=0.25;entryDx=0;entryDy=0;strokeColor=#FF0000;" edge="1" parent="1" source="8-dMRShzOqgbtEUZiYnd-1" target="8-dMRShzOqgbtEUZiYnd-6">
          <mxGeometry relative="1" as="geometry" />
        </mxCell>
        <mxCell id="8-dMRShzOqgbtEUZiYnd-23" value="Order Created" style="edgeLabel;html=1;align=center;verticalAlign=middle;resizable=0;points=[];" vertex="1" connectable="0" parent="8-dMRShzOqgbtEUZiYnd-22">
          <mxGeometry x="0.3576" relative="1" as="geometry">
            <mxPoint as="offset" />
          </mxGeometry>
        </mxCell>
        <mxCell id="8-dMRShzOqgbtEUZiYnd-27" style="edgeStyle=orthogonalEdgeStyle;rounded=0;orthogonalLoop=1;jettySize=auto;html=1;exitX=0.25;exitY=1;exitDx=0;exitDy=0;entryX=0.001;entryY=0.469;entryDx=0;entryDy=0;strokeColor=#0000FF;entryPerimeter=0;" edge="1" parent="1" source="8-dMRShzOqgbtEUZiYnd-1" target="8-dMRShzOqgbtEUZiYnd-4">
          <mxGeometry relative="1" as="geometry" />
        </mxCell>
        <mxCell id="8-dMRShzOqgbtEUZiYnd-28" value="Order" style="edgeLabel;html=1;align=center;verticalAlign=middle;resizable=0;points=[];" vertex="1" connectable="0" parent="8-dMRShzOqgbtEUZiYnd-27">
          <mxGeometry x="0.6281" relative="1" as="geometry">
            <mxPoint x="3" y="-10" as="offset" />
          </mxGeometry>
        </mxCell>
        <mxCell id="8-dMRShzOqgbtEUZiYnd-31" style="edgeStyle=orthogonalEdgeStyle;rounded=0;orthogonalLoop=1;jettySize=auto;html=1;exitX=0.871;exitY=-0.001;exitDx=0;exitDy=0;entryX=0.25;entryY=0;entryDx=0;entryDy=0;strokeColor=#0000FF;exitPerimeter=0;" edge="1" parent="1" source="8-dMRShzOqgbtEUZiYnd-1" target="8-dMRShzOqgbtEUZiYnd-5">
          <mxGeometry relative="1" as="geometry" />
        </mxCell>
        <mxCell id="8-dMRShzOqgbtEUZiYnd-32" value="Order" style="edgeLabel;html=1;align=center;verticalAlign=middle;resizable=0;points=[];" vertex="1" connectable="0" parent="8-dMRShzOqgbtEUZiYnd-31">
          <mxGeometry x="0.8257" y="2" relative="1" as="geometry">
            <mxPoint as="offset" />
          </mxGeometry>
        </mxCell>
        <mxCell id="8-dMRShzOqgbtEUZiYnd-39" style="edgeStyle=orthogonalEdgeStyle;rounded=0;orthogonalLoop=1;jettySize=auto;html=1;exitX=0.75;exitY=0;exitDx=0;exitDy=0;entryX=0;entryY=0.75;entryDx=0;entryDy=0;strokeColor=#0000FF;" edge="1" parent="1" source="8-dMRShzOqgbtEUZiYnd-1" target="8-dMRShzOqgbtEUZiYnd-3">
          <mxGeometry relative="1" as="geometry" />
        </mxCell>
        <mxCell id="8-dMRShzOqgbtEUZiYnd-40" value="Order" style="edgeLabel;html=1;align=center;verticalAlign=middle;resizable=0;points=[];" vertex="1" connectable="0" parent="8-dMRShzOqgbtEUZiYnd-39">
          <mxGeometry x="0.7405" y="1" relative="1" as="geometry">
            <mxPoint x="38" as="offset" />
          </mxGeometry>
        </mxCell>
        <mxCell id="8-dMRShzOqgbtEUZiYnd-41" style="edgeStyle=orthogonalEdgeStyle;rounded=0;orthogonalLoop=1;jettySize=auto;html=1;exitX=0;exitY=0.75;exitDx=0;exitDy=0;entryX=1;entryY=0.75;entryDx=0;entryDy=0;strokeColor=#0000FF;" edge="1" parent="1" source="8-dMRShzOqgbtEUZiYnd-1" target="8-dMRShzOqgbtEUZiYnd-2">
          <mxGeometry relative="1" as="geometry" />
        </mxCell>
        <mxCell id="8-dMRShzOqgbtEUZiYnd-46" value="Client" style="edgeLabel;html=1;align=center;verticalAlign=middle;resizable=0;points=[];" vertex="1" connectable="0" parent="8-dMRShzOqgbtEUZiYnd-41">
          <mxGeometry x="0.7667" y="1" relative="1" as="geometry">
            <mxPoint x="9" y="-11" as="offset" />
          </mxGeometry>
        </mxCell>
        <mxCell id="8-dMRShzOqgbtEUZiYnd-47" style="edgeStyle=orthogonalEdgeStyle;rounded=0;orthogonalLoop=1;jettySize=auto;html=1;exitX=0;exitY=0.25;exitDx=0;exitDy=0;entryX=1;entryY=0.25;entryDx=0;entryDy=0;strokeColor=#0000FF;" edge="1" parent="1" source="8-dMRShzOqgbtEUZiYnd-1" target="8-dMRShzOqgbtEUZiYnd-2">
          <mxGeometry relative="1" as="geometry" />
        </mxCell>
        <mxCell id="8-dMRShzOqgbtEUZiYnd-48" value="Order" style="edgeLabel;html=1;align=center;verticalAlign=middle;resizable=0;points=[];" vertex="1" connectable="0" parent="8-dMRShzOqgbtEUZiYnd-47">
          <mxGeometry x="0.7159" relative="1" as="geometry">
            <mxPoint x="4" y="-10" as="offset" />
          </mxGeometry>
        </mxCell>
        <mxCell id="8-dMRShzOqgbtEUZiYnd-1" value="Client" style="rounded=0;whiteSpace=wrap;html=1;" vertex="1" parent="1">
          <mxGeometry x="300" y="430" width="120" height="120" as="geometry" />
        </mxCell>
        <mxCell id="8-dMRShzOqgbtEUZiYnd-8" style="edgeStyle=orthogonalEdgeStyle;rounded=0;orthogonalLoop=1;jettySize=auto;html=1;exitX=1;exitY=0.5;exitDx=0;exitDy=0;entryX=0;entryY=0.5;entryDx=0;entryDy=0;strokeColor=#FF0000;" edge="1" parent="1" source="8-dMRShzOqgbtEUZiYnd-2" target="8-dMRShzOqgbtEUZiYnd-1">
          <mxGeometry relative="1" as="geometry" />
        </mxCell>
        <mxCell id="8-dMRShzOqgbtEUZiYnd-9" value="Weekly Invoice" style="edgeLabel;html=1;align=center;verticalAlign=middle;resizable=0;points=[];" vertex="1" connectable="0" parent="8-dMRShzOqgbtEUZiYnd-8">
          <mxGeometry x="0.1789" y="-1" relative="1" as="geometry">
            <mxPoint x="24" y="-11" as="offset" />
          </mxGeometry>
        </mxCell>
        <mxCell id="8-dMRShzOqgbtEUZiYnd-11" style="edgeStyle=orthogonalEdgeStyle;rounded=0;orthogonalLoop=1;jettySize=auto;html=1;entryX=0.001;entryY=0.874;entryDx=0;entryDy=0;exitX=0.5;exitY=1;exitDx=0;exitDy=0;strokeColor=#FF0000;entryPerimeter=0;" edge="1" parent="1" source="8-dMRShzOqgbtEUZiYnd-2" target="8-dMRShzOqgbtEUZiYnd-4">
          <mxGeometry relative="1" as="geometry" />
        </mxCell>
        <mxCell id="8-dMRShzOqgbtEUZiYnd-21" value="Monthly invoice" style="edgeLabel;html=1;align=center;verticalAlign=middle;resizable=0;points=[];" vertex="1" connectable="0" parent="8-dMRShzOqgbtEUZiYnd-11">
          <mxGeometry x="0.6967" y="-2" relative="1" as="geometry">
            <mxPoint as="offset" />
          </mxGeometry>
        </mxCell>
        <mxCell id="8-dMRShzOqgbtEUZiYnd-2" value="Scheduler" style="rounded=0;whiteSpace=wrap;html=1;" vertex="1" parent="1">
          <mxGeometry y="430" width="120" height="120" as="geometry" />
        </mxCell>
        <mxCell id="8-dMRShzOqgbtEUZiYnd-25" style="edgeStyle=orthogonalEdgeStyle;rounded=0;orthogonalLoop=1;jettySize=auto;html=1;exitX=0;exitY=0.5;exitDx=0;exitDy=0;strokeColor=#0000FF;" edge="1" parent="1" source="8-dMRShzOqgbtEUZiYnd-3" target="8-dMRShzOqgbtEUZiYnd-1">
          <mxGeometry relative="1" as="geometry" />
        </mxCell>
        <mxCell id="8-dMRShzOqgbtEUZiYnd-26" value="Type of Service" style="edgeLabel;html=1;align=center;verticalAlign=middle;resizable=0;points=[];rotation=-90;" vertex="1" connectable="0" parent="8-dMRShzOqgbtEUZiYnd-25">
          <mxGeometry x="0.918" relative="1" as="geometry">
            <mxPoint x="-10" y="-30" as="offset" />
          </mxGeometry>
        </mxCell>
        <mxCell id="8-dMRShzOqgbtEUZiYnd-37" style="edgeStyle=orthogonalEdgeStyle;rounded=0;orthogonalLoop=1;jettySize=auto;html=1;exitX=0;exitY=0.25;exitDx=0;exitDy=0;entryX=0.25;entryY=0;entryDx=0;entryDy=0;strokeColor=#FF0000;" edge="1" parent="1" source="8-dMRShzOqgbtEUZiYnd-3" target="8-dMRShzOqgbtEUZiYnd-1">
          <mxGeometry relative="1" as="geometry" />
        </mxCell>
        <mxCell id="8-dMRShzOqgbtEUZiYnd-38" value="Quality Assurance performed" style="edgeLabel;html=1;align=center;verticalAlign=middle;resizable=0;points=[];rotation=-90;" vertex="1" connectable="0" parent="8-dMRShzOqgbtEUZiYnd-37">
          <mxGeometry x="0.8296" y="-3" relative="1" as="geometry">
            <mxPoint x="-7" y="-23" as="offset" />
          </mxGeometry>
        </mxCell>
        <mxCell id="8-dMRShzOqgbtEUZiYnd-3" value="Manager" style="rounded=0;whiteSpace=wrap;html=1;" vertex="1" parent="1">
          <mxGeometry x="887" y="180" width="120" height="120" as="geometry" />
        </mxCell>
        <mxCell id="8-dMRShzOqgbtEUZiYnd-42" style="edgeStyle=orthogonalEdgeStyle;rounded=0;orthogonalLoop=1;jettySize=auto;html=1;exitX=0;exitY=0.283;exitDx=0;exitDy=0;entryX=0.5;entryY=1;entryDx=0;entryDy=0;exitPerimeter=0;strokeColor=#0000FF;" edge="1" parent="1" source="8-dMRShzOqgbtEUZiYnd-4" target="8-dMRShzOqgbtEUZiYnd-1">
          <mxGeometry relative="1" as="geometry" />
        </mxCell>
        <mxCell id="8-dMRShzOqgbtEUZiYnd-43" value="Worker" style="edgeLabel;html=1;align=center;verticalAlign=middle;resizable=0;points=[];rotation=89;" vertex="1" connectable="0" parent="8-dMRShzOqgbtEUZiYnd-42">
          <mxGeometry x="0.8608" y="-2" relative="1" as="geometry">
            <mxPoint x="8" y="10" as="offset" />
          </mxGeometry>
        </mxCell>
        <mxCell id="8-dMRShzOqgbtEUZiYnd-49" style="edgeStyle=orthogonalEdgeStyle;rounded=0;orthogonalLoop=1;jettySize=auto;html=1;exitX=-0.008;exitY=0.669;exitDx=0;exitDy=0;entryX=0.75;entryY=1;entryDx=0;entryDy=0;strokeColor=#0000FF;exitPerimeter=0;" edge="1" parent="1" source="8-dMRShzOqgbtEUZiYnd-4" target="8-dMRShzOqgbtEUZiYnd-2">
          <mxGeometry relative="1" as="geometry" />
        </mxCell>
        <mxCell id="8-dMRShzOqgbtEUZiYnd-50" value="Worker" style="edgeLabel;html=1;align=center;verticalAlign=middle;resizable=0;points=[];rotation=90;" vertex="1" connectable="0" parent="8-dMRShzOqgbtEUZiYnd-49">
          <mxGeometry x="0.8959" y="2" relative="1" as="geometry">
            <mxPoint x="12" as="offset" />
          </mxGeometry>
        </mxCell>
        <mxCell id="8-dMRShzOqgbtEUZiYnd-52" style="edgeStyle=orthogonalEdgeStyle;rounded=0;orthogonalLoop=1;jettySize=auto;html=1;exitX=0.006;exitY=0.126;exitDx=0;exitDy=0;entryX=0.75;entryY=1;entryDx=0;entryDy=0;exitPerimeter=0;strokeColor=#FF0000;" edge="1" parent="1" source="8-dMRShzOqgbtEUZiYnd-4" target="8-dMRShzOqgbtEUZiYnd-1">
          <mxGeometry relative="1" as="geometry" />
        </mxCell>
        <mxCell id="8-dMRShzOqgbtEUZiYnd-53" value="Order Completed" style="edgeLabel;html=1;align=center;verticalAlign=middle;resizable=0;points=[];rotation=90;" vertex="1" connectable="0" parent="8-dMRShzOqgbtEUZiYnd-52">
          <mxGeometry x="0.7895" y="-1" relative="1" as="geometry">
            <mxPoint x="9" y="16" as="offset" />
          </mxGeometry>
        </mxCell>
        <mxCell id="8-dMRShzOqgbtEUZiYnd-4" value="Worker" style="rounded=0;whiteSpace=wrap;html=1;" vertex="1" parent="1">
          <mxGeometry x="590" y="660" width="120" height="120" as="geometry" />
        </mxCell>
        <mxCell id="8-dMRShzOqgbtEUZiYnd-35" style="edgeStyle=orthogonalEdgeStyle;rounded=0;orthogonalLoop=1;jettySize=auto;html=1;exitX=0.25;exitY=1;exitDx=0;exitDy=0;entryX=1;entryY=0.25;entryDx=0;entryDy=0;strokeColor=#FF0000;" edge="1" parent="1" source="8-dMRShzOqgbtEUZiYnd-5" target="8-dMRShzOqgbtEUZiYnd-4">
          <mxGeometry relative="1" as="geometry" />
        </mxCell>
        <mxCell id="8-dMRShzOqgbtEUZiYnd-36" value="Consumables are ready" style="edgeLabel;html=1;align=center;verticalAlign=middle;resizable=0;points=[];" vertex="1" connectable="0" parent="8-dMRShzOqgbtEUZiYnd-35">
          <mxGeometry x="0.8156" relative="1" as="geometry">
            <mxPoint x="58" as="offset" />
          </mxGeometry>
        </mxCell>
        <mxCell id="8-dMRShzOqgbtEUZiYnd-5" value="External Partners" style="rounded=0;whiteSpace=wrap;html=1;" vertex="1" parent="1">
          <mxGeometry x="887" y="430" width="120" height="120" as="geometry" />
        </mxCell>
        <mxCell id="8-dMRShzOqgbtEUZiYnd-33" style="edgeStyle=orthogonalEdgeStyle;rounded=0;orthogonalLoop=1;jettySize=auto;html=1;exitX=0;exitY=0.5;exitDx=0;exitDy=0;entryX=1;entryY=0.5;entryDx=0;entryDy=0;strokeColor=#0000FF;" edge="1" parent="1" source="8-dMRShzOqgbtEUZiYnd-6" target="8-dMRShzOqgbtEUZiYnd-1">
          <mxGeometry relative="1" as="geometry" />
        </mxCell>
        <mxCell id="8-dMRShzOqgbtEUZiYnd-34" value="Order Price" style="edgeLabel;html=1;align=center;verticalAlign=middle;resizable=0;points=[];" vertex="1" connectable="0" parent="8-dMRShzOqgbtEUZiYnd-33">
          <mxGeometry x="0.6941" y="-2" relative="1" as="geometry">
            <mxPoint x="24" y="2" as="offset" />
          </mxGeometry>
        </mxCell>
        <mxCell id="8-dMRShzOqgbtEUZiYnd-44" style="edgeStyle=orthogonalEdgeStyle;rounded=0;orthogonalLoop=1;jettySize=auto;html=1;exitX=0.75;exitY=1;exitDx=0;exitDy=0;entryX=0.75;entryY=0;entryDx=0;entryDy=0;strokeColor=#FF0000;" edge="1" parent="1" source="8-dMRShzOqgbtEUZiYnd-6" target="8-dMRShzOqgbtEUZiYnd-4">
          <mxGeometry relative="1" as="geometry" />
        </mxCell>
        <mxCell id="8-dMRShzOqgbtEUZiYnd-45" value="Worker Matched" style="edgeLabel;html=1;align=center;verticalAlign=middle;resizable=0;points=[];rotation=90;" vertex="1" connectable="0" parent="8-dMRShzOqgbtEUZiYnd-44">
          <mxGeometry x="0.2797" y="3" relative="1" as="geometry">
            <mxPoint x="7" y="-10" as="offset" />
          </mxGeometry>
        </mxCell>
        <mxCell id="8-dMRShzOqgbtEUZiYnd-6" value="Worker Matching" style="rounded=0;whiteSpace=wrap;html=1;" vertex="1" parent="1">
          <mxGeometry x="590" y="430" width="120" height="120" as="geometry" />
        </mxCell>
        <mxCell id="8-dMRShzOqgbtEUZiYnd-20" value="" style="group" vertex="1" connectable="0" parent="1">
          <mxGeometry width="240" height="170" as="geometry" />
        </mxCell>
        <mxCell id="8-dMRShzOqgbtEUZiYnd-17" value="" style="rounded=0;whiteSpace=wrap;html=1;" vertex="1" parent="8-dMRShzOqgbtEUZiYnd-20">
          <mxGeometry width="240" height="170" as="geometry" />
        </mxCell>
        <mxCell id="8-dMRShzOqgbtEUZiYnd-13" value="" style="endArrow=classic;html=1;rounded=0;strokeColor=#FF0000;" edge="1" parent="8-dMRShzOqgbtEUZiYnd-20">
          <mxGeometry width="50" height="50" relative="1" as="geometry">
            <mxPoint x="20" y="70" as="sourcePoint" />
            <mxPoint x="100" y="70" as="targetPoint" />
          </mxGeometry>
        </mxCell>
        <mxCell id="8-dMRShzOqgbtEUZiYnd-14" value="Domain Event" style="text;html=1;strokeColor=none;fillColor=none;align=center;verticalAlign=middle;whiteSpace=wrap;rounded=0;" vertex="1" parent="8-dMRShzOqgbtEUZiYnd-20">
          <mxGeometry x="124" y="50" width="96" height="30" as="geometry" />
        </mxCell>
        <mxCell id="8-dMRShzOqgbtEUZiYnd-15" value="" style="endArrow=classic;html=1;rounded=0;strokeColor=#0000FF;" edge="1" parent="8-dMRShzOqgbtEUZiYnd-20">
          <mxGeometry width="50" height="50" relative="1" as="geometry">
            <mxPoint x="20" y="120" as="sourcePoint" />
            <mxPoint x="100" y="120" as="targetPoint" />
          </mxGeometry>
        </mxCell>
        <mxCell id="8-dMRShzOqgbtEUZiYnd-16" value="Data streaming communication" style="text;html=1;strokeColor=none;fillColor=none;align=center;verticalAlign=middle;whiteSpace=wrap;rounded=0;" vertex="1" parent="8-dMRShzOqgbtEUZiYnd-20">
          <mxGeometry x="124" y="100" width="96" height="30" as="geometry" />
        </mxCell>
        <mxCell id="8-dMRShzOqgbtEUZiYnd-18" value="Legend" style="text;html=1;strokeColor=none;fillColor=none;align=center;verticalAlign=middle;whiteSpace=wrap;rounded=0;" vertex="1" parent="8-dMRShzOqgbtEUZiYnd-20">
          <mxGeometry width="240" height="30" as="geometry" />
        </mxCell>
      </root>
    </mxGraphModel>
  </diagram>
</mxfile>
